<svg width="24" height="24" viewBox="0 0 24 24" fill="none" xmlns="http://www.w3.org/2000/svg">
<path d="M0.133119 0.133183C-0.0122278 0.278567 -0.0356709 0.405191 0.0487242 0.574023C0.0768558 0.630301 1.75069 2.328 3.76679 4.34461L7.4286 8.01671H5.23433H3.04006L2.92753 8.13396C2.76812 8.28872 2.76812 8.52321 2.93222 8.67797L3.05413 8.79053H5.81572H8.57262L8.68046 8.68266L8.7883 8.5748L8.80236 6.12673C8.81174 4.42434 8.80236 3.62238 8.76486 3.50045C8.72266 3.36445 8.67577 3.30348 8.55387 3.25189C8.3757 3.18154 8.27724 3.2003 8.12252 3.341L8.01468 3.43479V5.43264V7.43049L4.34818 3.76777C2.32739 1.75116 0.630112 0.0769062 0.573849 0.048768C0.405059 -0.0356483 0.278466 -0.0121994 0.133119 0.133183Z" fill="white"/>
<path d="M23.4169 0.0486507C23.3653 0.0767889 21.6727 1.75104 19.6566 3.76765L15.9854 7.43037V5.23555V3.04073L15.8682 2.92818C15.7135 2.76873 15.479 2.76873 15.3243 2.93287L15.2118 3.0548V5.81709V8.57468L15.3196 8.68254L15.4275 8.79041L17.8749 8.80448C19.5769 8.81386 20.3786 8.80448 20.5005 8.76696C20.6365 8.72475 20.6975 8.67785 20.749 8.55592C20.8194 8.37771 20.8006 8.27922 20.66 8.11977L20.5662 8.01659H18.5688H16.5715L20.2333 4.34449C22.2494 2.32789 23.9232 0.630184 23.9514 0.573906C24.0358 0.405074 24.0123 0.27845 23.867 0.133066C23.7216 -0.00762653 23.5763 -0.0357656 23.4169 0.0486507Z" fill="white"/>
<path d="M11.2122 8.90777C9.80094 9.27826 8.81165 10.5539 8.81165 12.003C8.81165 14.3714 11.2872 15.9002 13.4252 14.8591C15.1928 13.9962 15.7367 11.6935 14.5505 10.0755C13.8285 9.08598 12.4125 8.59355 11.2122 8.90777ZM12.586 9.68158C13.6362 9.95828 14.3911 10.9291 14.3911 12.003C14.3911 13.3068 13.3033 14.3948 11.9999 14.3948C10.6965 14.3948 9.60871 13.3068 9.60871 12.003C9.60871 10.9384 10.3589 9.96297 11.3951 9.68627C11.7327 9.59717 12.2437 9.59248 12.586 9.68158Z" fill="white"/>
<path d="M3.4387 15.2577C3.34493 15.2999 3.2746 15.375 3.24178 15.4688C3.18082 15.6376 3.20427 15.7314 3.34024 15.8815L3.43401 15.9893H5.43136H7.42871L3.73877 19.6802C1.0897 22.3346 0.0394545 23.4132 0.0160114 23.5117C-0.0496291 23.7837 0.22231 24.0557 0.49425 23.9901C0.592711 23.9666 1.67109 22.9161 4.32016 20.2664L8.01478 16.5755V18.7704V20.9652L8.132 21.0777C8.28672 21.2372 8.52115 21.2372 8.67588 21.073L8.78841 20.9511V18.1888V15.4312L8.68057 15.3234L8.57273 15.2155L6.07839 15.2061C4.05291 15.1967 3.55591 15.2061 3.4387 15.2577Z" fill="white"/>
<path d="M15.4228 15.253C15.1884 15.3703 15.1884 15.375 15.1884 17.9731C15.1884 20.6557 15.1884 20.6697 15.465 20.7635C15.6338 20.8245 15.7275 20.801 15.8823 20.665L15.9854 20.5712V18.5734V16.5755L19.68 20.2664C22.3291 22.9161 23.4075 23.9666 23.506 23.9901C23.7779 24.0557 24.0498 23.7837 23.9842 23.5117C23.9607 23.4132 22.9105 22.3346 20.2614 19.6802L16.5715 15.9893H18.7658H20.96L21.0726 15.8721C21.232 15.7173 21.232 15.4828 21.0679 15.3281L20.946 15.2155L18.2453 15.2061C16.1355 15.1967 15.5166 15.2061 15.4228 15.253Z" fill="white"/>
</svg>
